<svg width="578" height="284" viewBox="0 0 578 284" fill="none" xmlns="http://www.w3.org/2000/svg">
<path d="M530.816 275.751H47.1836V276.929H530.816V275.751Z" fill="#E6E7E8"/>
<path d="M236.387 126.254L262.502 169.688L217.525 180.669L196.85 128.064L236.387 126.254Z" fill="#FFCC00"/>
<path d="M395.538 100.674L386.979 141.532L364.548 147.39L356.986 124.773L359.75 112.752L364.105 93.8087L372.792 95.7069L395.538 100.674Z" fill="#FF9900"/>
<path d="M241.842 276.107C241.842 276.107 273.314 145.298 308.856 125.329L357.471 122.666C357.471 122.666 357.471 132.989 368.622 136.108C383.367 140.232 388.817 131.658 388.817 131.658C388.817 131.658 418.341 155.182 423.248 161.587L416.963 276.105H241.842V276.107Z" fill="#FFCC00"/>
<path d="M427.356 170.393L441.646 253.863C443.315 263.622 439.38 273.585 431.294 279.325C427.136 282.278 422.41 283.747 417.857 282.4C408.605 279.662 402.62 270.738 403.618 261.161L390.96 176.194C389.592 167.012 395.295 158.25 404.259 155.769C414.778 152.853 425.517 159.654 427.356 170.393Z" fill="#FFCC00"/>
<path d="M329.931 241.577H140.725C139.227 241.577 138.012 240.355 138.012 238.848V120.572C138.012 119.064 139.227 117.842 140.725 117.842H329.931C331.429 117.842 332.644 119.064 332.644 120.572V238.848C332.644 240.355 331.429 241.577 329.931 241.577Z" fill="white" stroke="#FF9900" stroke-miterlimit="10" stroke-linecap="round"/>
<path d="M138.012 135.371H332.644" stroke="#FF9900" stroke-miterlimit="10" stroke-linecap="round"/>
<path d="M149.808 126.681C149.808 128.306 148.492 129.627 146.859 129.627C145.232 129.627 143.91 128.306 143.91 126.681C143.91 125.056 145.227 123.734 146.859 123.734C148.492 123.734 149.808 125.056 149.808 126.681Z" stroke="#FF9900" stroke-miterlimit="10" stroke-linecap="round"/>
<path d="M161.605 126.681C161.605 128.306 160.283 129.627 158.656 129.627C157.029 129.627 155.707 128.306 155.707 126.681C155.707 125.056 157.029 123.734 158.656 123.734C160.289 123.734 161.605 125.056 161.605 126.681Z" stroke="#FF9900" stroke-miterlimit="10" stroke-linecap="round"/>
<path d="M173.4 126.681C173.4 128.306 172.078 129.627 170.451 129.627C168.824 129.627 167.502 128.306 167.502 126.681C167.502 125.056 168.818 123.734 170.451 123.734C172.084 123.734 173.4 125.056 173.4 126.681Z" stroke="#FF9900" stroke-miterlimit="10" stroke-linecap="round"/>
<path d="M357.048 227.457L335.246 218.151L325.943 240.688L348.794 251.204L357.048 227.457Z" fill="#FF9900"/>
<path d="M335.246 218.151C335.246 218.151 312.605 209.044 311.317 209.168C309.545 209.341 309.016 212.357 310.652 213.857C312.284 215.356 333.538 226.099 333.538 226.099L335.246 218.151Z" fill="#FF9900"/>
<path d="M319.85 237.607C321.014 238.327 324.818 240.173 329.311 242.279C332.507 240.382 334.648 224.348 334.648 224.348C334.648 224.348 321.101 218.516 319.819 218.97C318.536 219.416 315.998 222.143 317.882 223.909C318.138 224.151 318.578 224.458 319.136 224.807C316.421 224.878 314.72 228.721 317.369 230.898C317.362 230.898 317.355 230.9 317.35 230.907C317.184 231.083 314.406 234.217 319.85 237.607Z" fill="#FF9900"/>
<path d="M354.564 226.399C354.564 226.399 346.881 217.991 344.885 214.257C342.887 210.527 338.893 210.515 339.792 215.496C340.692 220.475 340.704 224.332 340.704 224.332L351.042 230.541L354.564 226.399Z" fill="#FF9900"/>
<path d="M412.769 281.314L339.178 253.479C341.401 253.583 346.107 246.447 349.991 236.976C353.962 227.291 355.599 218.74 353.748 217.556L426.816 242.219C438.177 246.055 443.947 258.652 439.418 269.734C435.158 280.169 423.33 285.308 412.769 281.314Z" fill="#FFCC00"/>
<path d="M205.542 113.856C205.085 114.896 205.153 116.093 205.621 117.126C207.034 120.242 211.152 128.606 214.355 127.91C218.28 127.054 214.926 120.111 212.937 115.983C211.249 112.474 206.92 110.728 205.542 113.856Z" fill="#FF9900"/>
<path d="M211.559 114.307C211.559 114.307 216.867 128.879 220.792 127.902C224.719 126.926 221.365 119.012 219.376 114.307C217.387 109.601 211.746 107.677 211.559 114.307Z" fill="#FF9900"/>
<path d="M223.907 115.73C223.907 115.73 228.935 128.274 232.282 126.054C234.564 124.538 233.076 119.502 230.312 115.335C227.778 111.518 222.854 110.422 223.907 115.73Z" fill="#FF9900"/>
<path d="M217.359 114.622C217.359 114.622 222.635 128.837 226.564 127.905C230.489 126.972 226.866 119.529 225.146 114.926C222.855 108.8 217.547 108.295 217.359 114.622Z" fill="#FF9900"/>
<path d="M261.292 172.578C261.331 173.134 261.331 173.689 261.331 174.25C261.331 191.341 248.174 211.051 224.117 211.051V211.041C217.012 211.051 210.053 209.038 204.07 205.242C205.104 205.366 206.142 205.427 207.183 205.43C213.073 205.435 218.793 203.481 223.426 199.882C217.83 199.777 212.922 196.169 211.208 190.9C213.168 191.275 215.188 191.197 217.113 190.677C211.011 189.459 206.622 184.157 206.622 178C206.622 177.943 206.622 177.89 206.622 177.836C208.44 178.838 210.474 179.393 212.557 179.455C206.811 175.656 205.039 168.096 208.509 162.185C215.149 170.266 224.947 175.177 235.464 175.697C234.409 171.205 235.85 166.498 239.248 163.34C244.515 158.443 252.8 158.694 257.751 163.901C260.681 163.329 263.488 162.267 266.057 160.761C265.081 163.755 263.037 166.298 260.307 167.914C262.9 167.612 265.433 166.925 267.818 165.878C266.063 168.48 263.851 170.746 261.292 172.578Z" fill="#1D9BF0"/>
<path d="M394.686 106.708C394.686 106.708 390.29 118.78 378.809 118.544C365.598 118.269 364.398 102.547 364.398 102.547C364.398 102.547 369.099 110.302 378.169 111.653C388.269 113.166 394.686 106.708 394.686 106.708Z" fill="#FFC061"/>
<path d="M378.041 40.2628C378.041 40.2628 387.204 29.2459 403.735 36.8224C415.405 42.1728 416.292 53.354 416.988 58.5331C417.254 60.5145 417.003 62.5346 416.262 64.3981L407.119 84.8425L395.631 51.3944L378.089 49.0755L378.041 40.2628Z" fill="#4D4D4F"/>
<path d="M407.118 84.8423C407.118 84.8423 410.127 81.7478 414.391 84.4908C418.654 87.2337 414.146 98.0462 406.883 97.9928C406.883 97.9928 404.274 97.9989 402.682 95.8818C402.682 95.8818 406.176 87.9373 407.118 84.8423Z" fill="#FF9900"/>
<path d="M412.629 88.2718C412.629 88.2718 409.021 86.1463 405.037 91.2698L412.629 88.2718Z" fill="#4D4D4F"/>
<path d="M359.642 74.7071C359.642 74.7071 358.154 70.6547 353.141 71.4164C348.126 72.1782 347.812 83.8873 354.47 86.8074C354.47 86.8074 356.853 87.8812 359.164 86.5918C359.164 86.5918 359.228 77.9114 359.642 74.7071Z" fill="#FF9900"/>
<path d="M353.213 75.5801C353.213 75.5801 357.376 75.1107 358.91 81.4219L353.213 75.5801Z" fill="#4D4D4F"/>
<path d="M409.872 74.2607C408.419 81.0455 404.725 95.0944 398.744 102.628C393.127 109.701 387.08 112.113 378.525 110.543C369.967 108.983 362.998 104.823 360.121 93.4742C357.245 82.1254 361.369 64.037 361.369 64.037C361.369 64.037 366.547 39.8048 390.52 44.9237C415.774 50.32 409.872 74.2607 409.872 74.2607Z" fill="#FF9900"/>
<path d="M359.643 74.7073L359.895 52.501C360.022 50.7174 360.645 48.9963 361.717 47.5628C364.402 43.9805 371.568 36.3099 378.054 40.2551L378.098 49.0787C378.098 49.0787 368.813 48.9665 362.759 59.8374L359.643 74.7073Z" fill="#4D4D4F"/>
<path d="M373.129 46.2901C373.129 46.2901 383.728 66.6483 412.591 71.0142C412.591 71.0142 414.282 49.904 401.425 45.638C388.567 41.3719 376.321 44.8381 376.321 44.8381L373.129 46.2901Z" fill="#4D4D4F"/>
<path d="M378.09 49.0752C378.09 49.0752 372.324 57.6615 361.648 62.6742C361.656 62.6886 363.864 42.9675 378.09 49.0752Z" fill="#4D4D4F"/>
<path d="M391.984 79.5483C391.795 80.7363 392.616 81.8507 393.805 82.0388C394.994 82.2269 396.11 81.4073 396.298 80.2193C396.487 79.0313 395.667 77.917 394.477 77.7288C393.277 77.5373 392.161 78.3569 391.984 79.5483Z" fill="#4D4D4F"/>
<path d="M371.761 76.4087C371.574 77.5967 372.393 78.711 373.582 78.8992C374.773 79.0873 375.887 78.2677 376.076 77.0797C376.264 75.8918 375.444 74.7773 374.255 74.5892C373.066 74.4012 371.95 75.2208 371.761 76.4087Z" fill="#4D4D4F"/>
<path d="M379.006 69.5613L364.373 68.8454C364.373 68.8454 365.192 66.3657 371.179 66.6905C377.165 67.0222 379.006 69.5613 379.006 69.5613Z" fill="#4D4D4F"/>
<path d="M389.391 71.9393L402.527 77.3295C402.527 77.3295 402.306 74.0389 396.922 71.8711C391.536 69.7119 389.391 71.9393 389.391 71.9393Z" fill="#4D4D4F"/>
<path d="M381.364 83.1865L381.029 86.2959C380.945 87.085 381.575 87.7426 382.344 87.6645L384.032 87.496" fill="#4D4D4F"/>
<path d="M373.962 91.4058L389.995 92.8102C389.995 92.8102 389.367 99.0067 381.555 98.0814C373.741 97.1562 373.962 91.4058 373.962 91.4058Z" fill="white"/>
<path d="M419.934 240.398L355.057 219.187" stroke="white" stroke-width="0.846538" stroke-miterlimit="10" stroke-linecap="round" stroke-linejoin="round"/>
<path d="M398.702 223.9L390.445 170.871" stroke="white" stroke-width="0.846538" stroke-miterlimit="10" stroke-linecap="round" stroke-linejoin="round"/>
</svg>
