<svg width="627" height="308" viewBox="0 0 627 308" fill="none" xmlns="http://www.w3.org/2000/svg">
<path d="M575.816 274.772H51.1836V276.05H575.816V274.772Z" fill="#E6E7E8"/>
<path d="M368.594 87.6607C368.594 87.6607 361.895 74.1321 317.859 85.5596L331.638 110.134L364.172 98.308L368.594 87.6607Z" fill="#FFCC00"/>
<path d="M396.249 112.323L464.89 165.459C474.97 173.26 476.788 187.743 468.949 197.786C462.124 206.529 450.025 209.175 440.158 204.09L381.531 173.868L396.249 112.323Z" fill="#FFCC00"/>
<path d="M287.591 109.198C287.591 109.198 251.266 128.566 248.448 134.188C245.631 139.812 256.903 274.54 256.903 274.54L393.486 275.013L396.25 112.321C396.25 112.321 365.874 90.4532 327.672 98.5746C296.077 105.294 287.591 109.198 287.591 109.198Z" fill="#FFCC00"/>
<path d="M332.078 110.196C303.326 123.474 290.854 108.038 290.854 108.038L290.944 99.3199L290.799 81.5658L290.414 35.3518L324.427 29.6944L332.078 110.196Z" fill="#FF9900"/>
<path d="M310.664 90.0799L290.943 99.3196L290.799 81.5656L297.346 81.8442L310.664 90.0799Z" fill="#FFC061"/>
<path d="M283.232 24.5559C283.232 24.5559 274.249 55.1308 279.322 76.5255C284.193 97.0553 307.942 91.18 310.024 90.4178C312.106 89.6557 328.803 76.2948 328.803 76.2948L331.388 33.4933L311.765 20.6577L283.232 24.5559Z" fill="#FF9900"/>
<path d="M310.532 11.2447C306.379 11.3183 302.571 12.092 296.938 14.0998C295.755 14.5214 294.429 15.3243 292.746 15.4243C288.815 15.6529 275.878 13.5036 275.668 22.8808C275.459 32.2581 282.755 40.6655 308.45 37.7485C308.45 37.7485 314.684 70.7295 328.532 75.2733C328.532 75.2733 330.45 75.6083 333.736 67.2764C337.021 58.9444 340.868 48.1598 339.455 40.497C338.115 33.2534 330.104 10.8943 310.532 11.2447Z" fill="#393939"/>
<path d="M312.27 59.7644C312.27 59.7644 323.394 46.3747 329.803 51.7658C336.209 57.1568 322.454 74.494 322.454 74.494L312.27 59.7644Z" fill="#FF9900"/>
<path d="M389.529 240.704C389.529 240.704 377.767 260.922 372.943 263.836C368.119 266.751 353.924 273.216 355.996 277.872C358.449 283.387 376.486 274.381 376.486 274.381L396.031 286.863L413.973 261.011L413.62 219.446L389.529 240.704Z" fill="#FF9900"/>
<path d="M376.389 269.197C376.389 269.197 352.848 302.514 355.205 305.252C358.076 308.59 359.994 307.054 364.152 302C368.313 296.945 383.728 272.745 383.728 272.745L376.389 269.197Z" fill="#FF9900"/>
<path d="M369.697 290.701C369.697 290.701 371.86 296.991 375.498 294.005C375.498 294.005 375.557 294.667 376.25 295.791C377.6 297.981 380.415 298.389 382.908 296.865C382.908 296.865 381.905 299.1 384.814 299.921C388.921 301.077 396.657 286.021 396.657 286.021L381.052 268.492L369.697 290.701Z" fill="#FF9900"/>
<path d="M375.123 262.116L385.388 265.248L379.896 256.379C379.893 256.376 375.808 261.495 375.123 262.116Z" fill="#FF9900"/>
<path d="M469.96 199.418L415.729 271.812C416.549 269.39 410.133 261.93 400.863 254.638C391.385 247.181 382.424 242.662 380.523 244.327L431.072 171.504C438.932 160.18 454.731 157.811 465.582 166.325C475.799 174.343 477.743 189.029 469.96 199.418Z" fill="#FFCC00"/>
<path d="M415.546 272.133C417.14 270.116 410.562 262.288 400.851 254.648C391.14 247.01 381.977 242.452 380.383 244.469C378.788 246.486 385.367 254.313 395.078 261.953C404.787 269.592 413.951 274.149 415.546 272.133Z" fill="#FFCC00"/>
<path d="M416.998 192.788C416.977 192.788 416.957 192.782 416.94 192.77C416.894 192.738 416.883 192.674 416.915 192.628L428.933 175.202C428.964 175.156 429.027 175.145 429.073 175.177C429.119 175.208 429.131 175.271 429.099 175.317L417.081 192.744C417.06 192.772 417.03 192.788 416.998 192.788Z" fill="#1B1A1F" stroke="white" stroke-width="0.8"/>
<path d="M269.816 197.271C270.497 195.85 261.577 190.184 249.893 184.615C238.209 179.046 228.186 175.683 227.505 177.104C226.826 178.524 235.746 184.189 247.43 189.759C259.114 195.327 269.137 198.691 269.816 197.271Z" fill="#FFCC00"/>
<path d="M321.375 62.3349C323.34 62.4125 324.985 61.2366 325.036 59.7247C325.074 58.5875 324.221 57.5797 322.953 57.1145" fill="#393939"/>
<path d="M302.274 59.9687C302.316 59.9405 302.358 59.9263 302.4 59.898C303.291 59.1356 304.663 60.3782 303.758 61.1407C302.061 62.5808 299.488 60.4346 301.241 58.8108C302.952 57.2294 305.482 59.7145 303.856 61.4089C302.23 63.1033 299.601 60.3217 301.594 58.9379C303.616 57.5542 305.142 60.9005 302.81 61.7195C301.694 62.1149 301.157 60.364 302.274 59.9687Z" fill="#393939"/>
<path d="M282.731 55.401C282.774 55.3727 282.817 55.3585 282.859 55.3303C283.75 54.5678 285.12 55.8104 284.216 56.5729C282.52 58.0131 279.947 55.8669 281.7 54.2431C283.411 52.6617 285.941 55.1468 284.315 56.8412C282.689 58.5355 280.06 55.754 282.053 54.3701C284.075 52.9864 285.601 56.3328 283.269 57.1517C282.152 57.5471 281.614 55.7963 282.731 55.401Z" fill="#393939"/>
<path d="M292.062 68.6172C291.497 67.4028 290.69 66.4144 289.8 65.4967L289.531 66.5981C290.578 66.1604 291.27 65.3979 291.808 64.6072C292.09 64.2118 292.303 63.7883 292.5 63.3646C292.67 62.9269 292.853 62.4892 292.953 62.0232C292.317 62.7151 291.68 63.3646 291.044 63.9576C290.408 64.5365 289.729 65.0872 289.064 65.299C288.711 65.412 288.528 65.7932 288.641 66.1462C288.669 66.2309 288.711 66.3156 288.767 66.3721L288.797 66.4004C289.644 67.3605 290.55 68.25 291.723 68.8995C291.836 68.9702 291.99 68.9278 292.048 68.8007C292.09 68.7725 292.09 68.6878 292.062 68.6172Z" fill="#393939"/>
<path d="M295.343 81.8896C293 81.8896 291.102 79.9931 291.102 77.6536C291.102 75.3142 293 73.4177 295.343 73.4177C297.685 73.4177 299.584 75.3142 299.584 77.6536C299.584 79.9931 297.685 81.8896 295.343 81.8896Z" fill="#393939"/>
<path d="M297.799 52.4103L310.427 56.1475C310.427 56.1475 309.136 53.6208 303.981 52.1255C298.821 50.6362 297.799 52.4103 297.799 52.4103Z" fill="#393939"/>
<path d="M290.839 51.4103L282.414 49.5181C282.414 49.5181 283.778 47.3538 287.206 48.1554C290.634 48.9569 290.839 51.4103 290.839 51.4103Z" fill="#393939"/>
<path d="M249.358 131.473C249.358 131.473 184.269 226.011 184.221 250.578C184.168 275.145 213.127 271.043 225.896 250.653C238.665 230.264 268.806 192.92 268.806 192.92L249.358 131.473Z" fill="#FFCC00"/>
<path d="M184.469 87.9356C184.927 82.5591 188.759 78.2769 193.71 76.9851L191.732 100.269C187.068 98.1718 184.012 93.3109 184.469 87.9356Z" fill="#FFCC00"/>
<path d="M246.822 110.729L266.724 113.043C267.787 113.166 268.749 112.408 268.873 111.347L271.872 85.8359C271.996 84.7757 271.236 83.8163 270.174 83.6933L250.271 81.3774L246.822 110.729Z" fill="#EAEEF1"/>
<path d="M246.822 110.733L258.717 112.116L262.165 82.7653L250.269 81.3823L246.822 110.733Z" fill="#EAEEF1"/>
<path d="M187.33 127.906L196.364 51.0123C209.036 67.3358 228.015 78.7667 250.193 81.3683L246.743 110.721C224.561 108.162 203.445 114.93 187.33 127.906Z" fill="#EAEEF1"/>
<path d="M258.534 112.157L258.967 157.098C258.539 158.377 257.268 159.182 255.924 159.026L244.494 157.688C242.694 157.479 241.543 155.67 242.118 153.957L246.83 110.796L258.534 112.157Z" fill="#EAEEF1"/>
<path d="M196.281 51.731L187.33 127.906C203.192 115.133 223.901 108.375 245.701 110.607C238.561 108.164 194.103 91.3308 196.281 51.731Z" fill="#EAEEF1"/>
<path d="M261.613 152.415C259.939 151.108 244.561 154.882 239.862 156.074C238.997 156.294 238.26 156.858 237.82 157.635L223.592 182.86L220.328 192.789L233.539 204.046L245.201 196.03L257.499 176.556L244.273 161.522C247.88 160.528 258.145 157.672 260.071 156.865C262.418 155.885 263.595 153.959 261.613 152.415Z" fill="#FF9900"/>
<path d="M242.258 160.615C242.258 160.615 261.823 154.621 264.647 155.782C267.471 156.942 267.569 159.069 265.659 160.04C263.746 161.01 246.518 166.995 246.518 166.995L242.258 160.615Z" fill="#FF9900"/>
<path d="M245.52 165.499C245.52 165.499 265.289 158.407 267.32 160.384C271.893 164.84 250.688 172.27 250.688 172.27L245.52 165.499Z" fill="#FF9900"/>
<path d="M251.111 170.544C251.111 170.544 263.87 163.991 266.411 165.809C268.951 167.625 257.5 176.555 257.5 176.555L251.111 170.544Z" fill="#FF9900"/>
<path d="M258.622 201.905L216.56 263.44C210.708 272.001 199.294 274.724 190.19 269.734C182.673 265.61 178.861 257.436 179.898 249.488C180.253 246.777 181.17 244.092 182.697 241.604L221.438 178.015C219.989 180.243 227.115 187.422 237.355 194.049C247.593 200.677 257.067 204.244 258.517 202.016C258.542 201.974 258.569 201.93 258.587 201.884L258.622 201.905Z" fill="#FFCC00"/>
</svg>
