<svg width="667" height="334" viewBox="0 0 667 334" fill="none" xmlns="http://www.w3.org/2000/svg">
<g clip-path="url(#clip0_78_222)">
<path d="M612.551 332.608H54.4492V334H612.551V332.608Z" fill="#E6E7E8"/>
<path d="M267.065 138.819C267.065 138.819 280.04 142.921 277.529 179.681C275.018 216.442 247.392 194.001 247.392 194.001L226.883 140.785L267.065 138.819Z" fill="#393939"/>
<path d="M249.902 168.639L253.671 143.418L223.197 121.618L219.348 166.378L249.902 168.639Z" fill="#FF9900"/>
<path d="M177.071 300.859L160.225 333.453H283.824L270.729 296.906L177.071 300.859Z" fill="#393939"/>
<path d="M285.697 177.744L364.16 182.411C374.724 183.04 383.147 191.662 383.737 202.45C384.377 214.166 375.605 224.196 364.135 224.864L298.045 228.715L285.697 177.744Z" fill="#FF9900"/>
<path d="M330.302 231.928L292.946 232.748L280.36 233.023L276.681 233.104L266.635 174.219L318.416 175.855L323.29 201.792L330.302 231.928Z" fill="#FFCC00"/>
<path d="M328.871 230.862C328.731 230.887 328.581 230.892 328.43 230.873L328.871 230.862Z" fill="#1B1A1F"/>
<path d="M355.232 105.135L344.458 200.915C343.128 212.733 352.051 223.152 363.696 223.381C374.496 223.594 383.457 214.907 383.813 203.883L386.939 107.379L355.232 105.135Z" fill="#FF9900"/>
<path d="M256.391 173.164L252.625 163.206L218.51 159.589L211.605 171.345L257.228 173.164H256.391Z" fill="#FFCC00"/>
<path d="M252.251 152.918L237.973 144.202L251.039 161.028L252.251 152.918Z" fill="#FFC061"/>
<path d="M277.528 95.4036C277.528 95.4036 277.111 150.687 258.136 153.252C239.161 155.817 223.199 121.621 223.199 121.621L239.859 87.8534L277.528 95.4036Z" fill="#FF9900"/>
<path d="M264.762 95.26C264.762 95.26 252.136 110.363 234.415 112.359C234.415 112.359 237.79 134.159 223.197 140.144C223.197 140.144 231.336 170.074 211.602 172.203C191.869 174.331 172.351 202.834 172.351 202.834C172.351 202.834 155.15 183.48 169.745 158.312C181.047 138.822 196.324 138.223 196.324 138.223C196.324 138.223 188.579 113.645 212.905 105.309C212.905 105.309 223.197 62.7791 267.063 78.1666L264.762 95.26Z" fill="#393939"/>
<path d="M267.066 78.161C267.066 78.161 285.427 89.1177 284.708 106.407C283.875 126.399 274.173 127.407 274.173 127.407C274.173 127.407 275.714 121.331 275.871 117.201C275.871 117.201 263.576 98.9646 263.576 92.6954C263.576 86.4261 267.066 78.161 267.066 78.161Z" fill="#393939"/>
<path d="M283.824 174.761C283.824 174.761 206.185 165.146 193.188 173.484C178.806 182.706 166.61 190.583 172.051 248.715L177.074 300.862H268.741C268.741 300.862 285.418 246.454 285.486 230.548C285.562 211.312 283.824 174.761 283.824 174.761Z" fill="#FFCC00"/>
<path d="M219.766 196.565L253.082 285.999C257.118 296.831 251.849 308.961 241.279 313.181C231.429 317.111 220.259 312.819 215.39 303.23L177.074 227.767L219.766 196.565Z" fill="#FF9900"/>
<path d="M230.23 271.368L322.539 247.525L335.29 274.357L238.368 314.096L230.23 271.368Z" fill="#FF9900"/>
<path d="M322.539 247.525C322.539 247.525 343.8 242.015 350.499 242.444C357.194 242.871 384.961 263.959 385.101 266.38C385.241 268.8 383.427 273.79 371.427 266.38C359.428 258.971 359.428 258.971 359.428 258.971L335.29 274.357L322.539 267.945V247.525Z" fill="#FF9900"/>
<path d="M360.266 255.599C360.266 255.599 372.623 264.528 372.862 267.236C373.101 269.944 371.604 273.79 366.562 272.081C361.521 270.372 350.08 258.391 350.08 258.391L360.823 255.599H360.266Z" fill="#FF9900"/>
<path d="M350.919 255.599C350.919 255.599 365.008 268.315 364.73 271.194C364.451 274.073 362.918 276.925 357.058 274.36C351.197 271.797 342.688 264.671 342.688 264.671L350.919 255.599Z" fill="#FF9900"/>
<path d="M347.15 264.049C347.15 264.049 357.614 270.085 357.754 273.077C357.896 276.069 355.799 278.918 351.337 277.351C346.871 275.782 339.797 271.486 339.797 271.486L347.15 264.049Z" fill="#FF9900"/>
<path d="M238.796 239.055C237.526 235.903 225.026 238.578 210.555 244.137C196.031 249.714 185.831 258.292 187.002 261.508C186.9 261.323 183.52 255.119 174.77 224.896C165.689 193.528 192.115 173.197 206.162 180.109C219.99 186.911 238.229 237.477 238.796 239.055Z" fill="#FFCC00"/>
<path d="M234.713 238.078C234.557 238.078 234.409 237.988 234.343 237.83L218.744 201.605C218.654 201.395 218.745 201.153 218.95 201.058C219.156 200.968 219.394 201.061 219.487 201.271L235.086 237.496C235.176 237.705 235.084 237.949 234.878 238.042C234.825 238.067 234.768 238.078 234.713 238.078Z" stroke="white" stroke-width="0.846538" stroke-miterlimit="10" stroke-linecap="round" stroke-linejoin="round"/>
<path d="M355.172 105.687C355.172 105.687 358.034 93.6064 356.499 88.0521C354.963 82.4951 348.997 67.7259 353.708 65.683C359.291 63.2621 366.328 82.6193 366.328 82.6193L389.21 86.9147L386.943 107.382L355.172 105.687Z" fill="#FF9900"/>
<path d="M362.699 86.4401C362.699 86.4401 368.303 45.0037 371.906 44.5951C376.301 44.0955 376.652 46.5911 376.232 53.2856C375.813 59.9827 370.513 88.9053 370.513 88.9053L362.699 86.4401Z" fill="#FF9900"/>
<path d="M371.349 67.9607C371.349 67.9607 376.205 63.4002 379.338 67.356C379.338 67.356 380.224 66.7211 381.505 66.3596C383.998 65.6611 386.456 67.6018 386.456 70.2408C386.456 70.2408 386.945 67.9607 389.908 68.6011C393.018 69.2747 389.091 87.9802 389.091 87.9802L365.635 90.2218L371.349 67.9607Z" fill="#FF9900"/>
<path d="M437.282 258.382H436.471V330.788H437.282V258.382Z" stroke="#FF9900" stroke-miterlimit="10" stroke-linecap="round"/>
<path d="M408.739 325.564H407.928V289.616L423.658 253.676L424.399 254.015L408.739 289.792V325.564Z" stroke="#FF9900" stroke-miterlimit="10" stroke-linecap="round"/>
<path d="M465.826 325.564H465.015V289.792L449.355 254.015L450.096 253.676L465.826 289.616V325.564Z" stroke="#FF9900" stroke-miterlimit="10" stroke-linecap="round"/>
<path d="M452.336 273.563H470.511V265.115L449.139 221.822L451.247 251.733L452.336 273.563Z" fill="#EAEEF1"/>
<path d="M422.865 273.563H404.691V265.115L426.063 221.822L423.954 251.733L422.865 273.563Z" fill="#EAEEF1"/>
<path d="M454.516 266.833H421.98C421.98 266.833 423.54 220.345 429.926 194.86C432.282 185.451 435.297 178.903 439.136 178.616C443.099 178.318 446.046 185.023 448.237 194.86C453.918 220.343 454.516 266.833 454.516 266.833Z" fill="#EAEEF1"/>
<path d="M448.188 194.86H429.875C432.233 185.451 435.246 178.903 439.085 178.616C443.048 178.318 445.995 185.023 448.188 194.86Z" fill="#FFCC00"/>
<path d="M446.66 273.977H427.791L428.448 265.016H446.279L446.66 273.977Z" fill="#EAEEF1"/>
<path d="M259.008 127.408L259.103 132.121L255.977 131.922" fill="#393939"/>
<path d="M263.891 124.034C263.73 125.286 264.582 126.438 265.807 126.601C267.034 126.765 268.161 125.894 268.321 124.642C268.482 123.39 267.63 122.239 266.405 122.075C265.177 121.9 264.051 122.782 263.891 124.034Z" fill="#393939"/>
<path d="M245.256 121.468C245.095 122.719 245.947 123.871 247.172 124.035C248.399 124.198 249.526 123.328 249.687 122.076C249.847 120.824 248.995 119.672 247.77 119.509C246.556 119.344 245.43 120.226 245.256 121.468Z" fill="#393939"/>
<path d="M255.184 115.103L241.795 116.135C241.795 116.135 243.626 113.844 249.086 113.454C254.547 113.071 255.184 115.103 255.184 115.103Z" fill="#393939"/>
<path d="M262.627 115.629L271.367 116.688C271.367 116.688 270.792 114.088 267.224 113.688C263.656 113.288 262.627 115.629 262.627 115.629Z" fill="#393939"/>
<path d="M260.393 137.038C260.393 137.038 256.609 139.189 253.982 139.123C250.818 139.043 246.613 135.681 246.613 135.681C246.613 135.681 248.507 142.039 255.601 141.204C260.511 140.639 260.393 137.038 260.393 137.038Z" fill="#393939"/>
<path d="M226.686 123.46C226.686 123.46 226.333 117.576 220.881 118.847L226.686 123.46Z" fill="#393939"/>
<path d="M438.995 210.142C441.626 210.142 443.759 207.961 443.759 205.271C443.759 202.581 441.626 200.4 438.995 200.4C436.364 200.4 434.23 202.581 434.23 205.271C434.23 207.961 436.364 210.142 438.995 210.142Z" fill="white"/>
<path d="M488.68 325.65H360.725V334H488.68V325.65Z" fill="#EAEEF1"/>
<path fill-rule="evenodd" clip-rule="evenodd" d="M543.629 226.008C545.713 227.197 546.465 229.894 545.306 232.033L491.328 331.721C490.17 333.859 487.541 334.63 485.456 333.442C483.372 332.254 482.62 329.556 483.779 327.417L537.757 227.73C538.915 225.591 541.544 224.82 543.629 226.008Z" fill="#EAEEF1"/>
</g>
<defs>
<clipPath id="clip0_78_222">
<rect width="667" height="334" fill="white"/>
</clipPath>
</defs>
</svg>
