<svg width="40" height="45" viewBox="0 0 40 45" fill="none" xmlns="http://www.w3.org/2000/svg">
<path d="M14.8523 1.57732C4.48049 4.61782 -1.46355 15.4922 1.57694 25.864C2.60981 29.3873 4.56244 32.3821 7.07653 34.7049L7.25072 44.5957L15.8819 39.3999C19.0724 40.153 22.4932 40.1274 25.8636 39.1393C36.2354 36.0988 42.1795 25.2245 39.139 14.8527C36.0985 4.48087 25.2241 -1.46317 14.8523 1.57732ZM11.3613 13.482C11.6665 13.3926 11.9795 13.2988 12.2544 13.2335C12.5916 13.1431 12.9633 13.0608 13.5385 13.7301C14.2221 14.5256 15.7997 16.5617 15.9839 16.7609C16.1681 16.9602 16.3307 17.2108 16.2589 17.5633C16.1973 17.9213 16.1731 18.1341 16.0289 18.4772C15.8746 18.8147 15.7171 19.224 15.5655 19.4894C15.4006 19.791 15.2348 20.1172 15.6402 20.5032C16.0457 20.8891 17.4273 22.1388 19.1699 22.9639C21.4115 24.0301 23.0532 24.0785 23.588 24.1749C24.1227 24.2714 24.3822 24.1559 24.5596 23.7639C24.7472 23.3775 25.3266 22.0705 25.5029 21.5123C25.6713 20.9565 26.0066 20.9458 26.4741 20.9753C26.9479 21.003 29.565 21.4591 30.0998 21.5556C30.6346 21.6521 30.9741 21.6779 31.147 21.8328C31.3249 21.9932 31.598 22.9244 31.5299 24.1239C31.4613 25.3219 29.8704 26.9272 29.0406 27.2504C28.2047 27.5821 27.4927 28.1235 23.1162 27.729C17.8369 27.2524 13.4311 23.2799 13.1062 23.0352C12.7835 22.7984 10.4721 21.0705 9.80229 18.7855C9.13014 16.4927 10.0031 15.0174 10.2874 14.4275C10.5795 13.8354 11.0482 13.5738 11.3613 13.482Z" fill="#53C462"/>
</svg>
