<svg width="682" height="204" viewBox="0 0 682 204" fill="none" xmlns="http://www.w3.org/2000/svg">
<path opacity="0.6" d="M123.878 45.7461C130.421 45.6469 136.816 47.5816 142.219 51.2031C143.211 51.9969 144.351 52.5426 145.59 52.8898C146.829 53.1875 148.069 53.2867 149.357 53.0883C151.886 52.8402 154.166 51.6 155.802 49.6652C156.595 48.7723 157.19 47.6809 157.537 46.5398C157.884 45.3988 157.933 44.1586 157.735 42.968C157.586 41.7773 157.19 40.5867 156.545 39.5449C155.901 38.5031 155.058 37.6102 154.067 36.9156C145.491 30.7641 135.23 27.4898 124.72 27.5394C111.931 27.6387 100.926 31.8555 91.6562 40.1402C82.436 48.425 77.8258 58.3965 77.8754 70.0547C77.8754 81.7129 82.4855 91.734 91.7058 100.068C100.926 108.403 111.931 112.57 124.77 112.57C135.23 112.57 144.995 109.544 154.116 103.541C156.099 102.003 157.438 99.7707 157.785 97.3398C157.983 96.1492 157.884 94.9586 157.586 93.8672C157.239 92.7262 156.644 91.6844 155.851 90.7914C154.166 88.8566 151.836 87.666 149.308 87.418C148.069 87.2195 146.829 87.2691 145.64 87.5668C144.45 87.8644 143.31 88.3606 142.318 89.1047C136.865 92.7758 130.421 94.6609 123.878 94.5617C116.987 94.5617 110.84 92.1308 105.536 87.3187C100.232 82.5066 97.5057 76.8015 97.5057 70.2035C97.5057 63.6055 100.232 57.9004 105.635 53.0387C110.94 48.1769 117.086 45.7461 123.878 45.7461Z" stroke="#FACB12" stroke-width="1.5" stroke-miterlimit="10"/>
<path opacity="0.6" d="M230.508 32.0043C218.313 32.0043 207.903 36.2211 199.228 44.6547C190.553 53.0883 186.24 63.159 186.24 74.8668C186.24 86.525 190.553 96.5957 199.178 104.98C207.804 113.364 218.313 117.58 230.755 117.58C242.95 117.58 253.063 113.463 261.093 105.178C261.391 104.831 261.738 104.533 262.085 104.186C270.363 96.5461 274.477 86.9715 274.477 75.4125C274.477 63.6055 270.214 53.4356 261.638 44.9027C253.013 36.2707 242.652 32.0043 230.508 32.0043ZM254.698 77.8434C254.054 83.2508 251.625 88.2614 247.758 92.0813C243.892 95.9012 238.835 98.2824 233.432 98.8281C232.391 98.9274 231.35 98.977 230.309 98.977H230.111C223.964 98.9273 218.065 96.4965 213.653 92.2301C209.241 87.9637 206.614 82.1594 206.366 76.0078C206.366 75.5613 206.317 75.1149 206.317 74.718C206.317 74.3211 206.317 73.9738 206.317 73.577C206.565 67.5742 209.043 61.8691 213.257 57.6027C217.52 53.3363 223.171 50.8559 229.169 50.5582C229.516 50.5582 229.913 50.5582 230.26 50.5582C231.648 50.5582 233.085 50.6574 234.473 50.9055C245.825 52.741 254.45 62.266 254.797 73.7258C254.797 74.0731 254.797 74.3707 254.797 74.718C254.847 75.7598 254.797 76.8016 254.698 77.8434Z" stroke="#FACB12" stroke-width="1.5" stroke-miterlimit="10"/>
<path opacity="0.6" d="M342.935 30.516C330.741 30.516 320.331 34.7328 311.656 43.1664C302.981 51.6 298.668 61.6707 298.668 73.3785C298.668 85.0367 302.981 95.1074 311.606 103.491C320.232 111.875 330.741 116.092 343.183 116.092C355.626 116.092 365.887 111.776 374.017 103.144C382.642 95.4547 386.955 85.6817 386.955 73.8746C386.955 62.0676 382.692 51.8977 374.116 43.3152C365.49 34.7824 355.13 30.516 342.935 30.516ZM360.137 91.2379C355.328 95.4547 349.578 97.5383 342.787 97.5383C335.995 97.5383 330.245 95.4547 325.437 91.2379C320.975 86.2274 318.744 80.2246 318.744 73.2297C318.744 66.1852 320.975 60.2817 325.387 55.5192C330.691 51.2031 336.441 49.0699 342.737 49.0699C349.033 49.0699 354.783 51.2031 360.087 55.5192C364.895 60.2817 367.324 66.1852 367.324 73.2297C367.374 76.5535 366.779 79.8774 365.54 82.9531C364.301 86.0289 362.466 88.8567 360.137 91.2379Z" stroke="#FACB12" stroke-width="1.5" stroke-miterlimit="10"/>
<path opacity="0.6" d="M455.413 32.0043C446.837 31.8059 438.41 34.2367 431.222 38.9496V10.9699C431.222 5.86016 426.711 1.69298 421.159 1.69298C415.607 1.69298 411.096 5.86016 411.096 10.9699V76.9504C411.096 77.4961 411.145 77.9922 411.244 78.4883C412.038 88.6086 416.301 97.4391 424.034 104.98C432.659 113.364 443.168 117.58 455.611 117.58C468.053 117.58 478.315 113.264 486.444 104.632C495.07 96.943 499.382 87.1699 499.382 75.3629C499.382 63.5559 495.119 53.3859 486.543 44.8035C477.968 36.2707 467.558 32.1035 455.413 32.0043ZM472.564 92.7262C467.756 96.943 462.006 99.0266 455.214 99.0266C448.423 99.0266 442.673 96.943 437.864 92.7262C433.452 87.7156 431.222 81.7129 431.222 74.718C431.222 67.6734 433.452 61.7699 437.864 57.0074C443.168 52.6914 448.919 50.5582 455.214 50.5582C461.51 50.5582 467.26 52.6914 472.564 57.0074C477.373 61.7699 479.752 67.6734 479.752 74.718C479.802 78.0418 479.207 81.3656 477.968 84.4414C476.728 87.5172 474.894 90.3449 472.564 92.7262Z" stroke="#FACB12" stroke-width="1.5" stroke-miterlimit="10"/>
<path opacity="0.6" d="M603.284 30.1687C601.351 28.4324 598.872 27.4898 596.245 27.5394C593.717 27.4898 591.288 28.3828 589.404 30.0695C588.512 30.8633 587.818 31.8555 587.322 32.9965C586.826 34.0879 586.628 35.3281 586.628 36.5187V76.6527C586.678 78.9844 586.182 81.316 585.24 83.4492C584.298 85.5824 582.861 87.4676 581.126 89.0055C577.457 92.3789 572.946 94.016 567.642 94.016C562.338 94.016 557.827 92.3293 554.06 89.0055C550.292 85.6816 548.409 81.564 548.409 76.6527V36.5187C548.458 35.3281 548.21 34.0879 547.715 32.9965C547.219 31.9051 546.525 30.8633 545.633 30.0695C543.749 28.3828 541.32 27.4402 538.792 27.5394C536.214 27.4898 533.735 28.4324 531.852 30.1687C530.959 30.9625 530.216 31.9547 529.72 33.0461C529.224 34.1375 528.977 35.3281 528.977 36.5683V76.7023C528.977 86.4754 532.744 94.8594 540.328 101.904C547.913 108.948 556.984 112.471 567.543 112.471C574.087 112.471 579.936 111.131 585.091 108.403C583.604 112.818 580.729 116.489 576.516 119.366C572.252 122.244 567.94 123.732 563.528 123.782C559.116 123.831 555.398 123.186 552.473 121.797C549.499 120.458 546.723 120.16 544.096 120.954C541.469 121.748 539.535 123.186 538.296 125.22C537.751 126.312 537.453 127.502 537.354 128.693C537.305 129.884 537.453 131.124 537.899 132.265C538.742 134.596 540.477 136.234 543.055 137.275C549.003 140.054 555.497 141.492 562.041 141.542C574.334 141.542 584.794 137.623 593.32 129.735C601.896 121.847 606.159 112.223 606.159 100.912V36.5187C606.159 35.2785 605.911 34.0879 605.366 32.9965C604.97 31.9051 604.226 30.9129 603.284 30.1687Z" stroke="#FACB12" stroke-width="1.5" stroke-miterlimit="10"/>
<path d="M213.801 166.446C230.556 164.561 243.842 160.443 243.495 157.218C243.148 153.994 229.268 152.902 212.512 154.738C195.757 156.623 182.472 160.741 182.819 163.965C183.166 167.239 197.046 168.331 213.801 166.446Z" fill="#DF5751"/>
<path d="M261.638 300.242L234.77 141.591C232.589 143.625 225.847 148.686 212.413 148.785C212.413 148.785 199.574 149.281 189.957 143.725L186.686 300.242H261.638Z" fill="white"/>
<path d="M241.214 85.0367C241.065 84.9375 240.917 84.8383 240.817 84.7391C240.718 84.5902 240.619 84.4414 240.57 84.2926C237.893 75.0652 230.457 79.282 230.457 79.282C228.772 80.7207 226.937 79.4805 226.937 79.4805C224.013 76.8016 217.767 77.0496 217.767 77.0496C213.999 77.0992 211.322 80.8199 211.322 80.8199C209.191 84.5902 203.738 80.9688 203.738 80.9688C201.012 78.4883 197.294 79.7781 197.294 79.7781C193.278 81.1176 190.453 84.7887 190.453 84.7887C188.173 87.3684 184.256 85.4336 184.256 85.4336C180.786 84.3422 178.01 87.2195 178.01 87.2195C176.375 88.5094 174.788 93.6191 174.392 95.0082C174.342 95.2562 174.293 95.5043 174.243 95.7027C171.417 116.688 180.935 129.884 180.935 129.884C187.429 139.855 189.858 141.145 189.858 141.145C199.524 146.701 212.314 146.205 212.314 146.205C225.698 146.106 232.489 141.046 234.671 139.012C234.968 138.764 235.216 138.466 235.513 138.168C245.229 129.338 247.708 102.946 247.708 102.946C249.592 88.2613 241.214 85.0367 241.214 85.0367Z" fill="white"/>
<path d="M240.918 83.4492C240.918 83.4492 240.918 91.3867 237.943 97.8359" stroke="#4722E9" stroke-width="1.5" stroke-linecap="round" stroke-linejoin="round"/>
<path d="M183.661 164.66C183.661 164.66 217.023 172.746 244.733 158.508L265.702 292.85L172.26 303.02L183.661 164.66Z" fill="#55BC9F"/>
<path d="M355.971 133.307C370.942 129.189 382.393 123.335 381.55 120.21C380.708 117.084 367.869 117.828 352.898 121.946C337.927 126.064 326.476 131.918 327.319 135.043C328.162 138.168 341.001 137.375 355.971 133.307Z" fill="#DF5751"/>
<path d="M333.319 53.6836C333.319 53.6836 332.823 41.2317 335.648 39.2969C335.648 39.2969 337.582 36.8164 341.944 40.3387C341.944 40.3387 345.959 44.2578 347.099 45.5477L349.677 51.8977L347.05 55.2215L339.763 57.057L334.161 56.4617L333.319 53.6836Z" fill="#B39EF5"/>
<path d="M409.261 245.077L366.729 104.335H366.679C362.366 107.162 357.409 108.849 352.303 109.395C352.303 109.395 340.555 110.933 333.764 108.601L342.934 253.907L409.261 245.077Z" fill="white"/>
<path d="M366.581 56.2137C365.837 55.7176 363.21 51.9473 363.21 51.9473C362.665 50.6078 359.145 42.5711 359.145 42.5711C357.956 39.3961 355.378 39.5945 355.378 39.5945C353.345 39.5449 351.363 39.8922 349.528 40.6859C345.761 41.8766 347.149 49.8637 347.149 49.8637C347.199 50.3101 346.852 50.0621 346.852 50.0621L345.811 48.9707C343.58 46.8375 340.209 47.7305 340.209 47.7305C336.442 48.7723 335.004 53.8324 335.004 53.8324C334.806 54.4277 334.558 54.1301 334.558 54.1301L332.525 53.3363C329.948 52.1457 326.775 53.7828 326.775 53.7828C324.594 54.775 322.958 57.2059 322.958 57.2059C322.809 57.8508 321.917 57.702 321.917 57.702C319.339 56.4617 315.622 57.1563 315.622 57.1563C308.483 59.091 310.02 67.227 310.02 67.227C312.895 85.1856 318.249 94.6113 318.249 94.6113C321.174 100.217 331.931 105.823 331.931 105.823C332.228 105.922 332.525 106.071 332.823 106.17C339.614 108.552 351.363 107.113 351.363 107.113C356.468 106.617 361.426 104.93 365.738 102.152C366.482 101.656 366.878 101.309 366.878 101.309L371.439 90.841C380.213 70.4516 366.581 56.2137 366.581 56.2137Z" fill="white"/>
<path d="M321.719 56.6602C321.719 56.6602 323.702 59.1406 323.702 62.1172" stroke="#4722E9" stroke-width="1.5" stroke-miterlimit="10"/>
<path d="M334.607 53.6836L336.59 61.6211" stroke="#4722E9" stroke-width="1.5" stroke-miterlimit="10"/>
<path d="M346.752 48.9707L349.726 59.8848" stroke="#4722E9" stroke-width="1.5" stroke-miterlimit="10"/>
<path d="M327.072 134.547C327.072 134.547 358.501 138.119 381.601 120.408L420.019 250.534L336.739 272.957L327.072 134.547Z" fill="#B39EF5"/>
<path d="M625.491 167.388C640.71 164.312 652.508 159.252 651.863 156.028C651.219 152.853 638.38 152.754 623.112 155.829C607.894 158.905 596.096 163.965 596.74 167.19C597.434 170.365 610.273 170.464 625.491 167.388Z" fill="#DF5751"/>
<path d="M671.891 269.385L641.008 141.343C639.273 143.526 633.572 149.43 622.865 149.33C622.865 149.33 611.711 149.43 604.424 144.915L600.508 273.85L671.891 269.385Z" fill="white"/>
<path d="M648.295 99.473C644.676 91.4363 642.098 92.5774 642.098 92.5774C639.273 92.5774 638.034 95.3555 638.034 95.3555C637.687 95.9012 637.439 95.4547 637.439 95.4547C637.24 92.0813 627.128 63.4566 627.128 63.4566C627.029 63.0102 626.731 62.5637 626.285 62.3156C625.839 62.0676 625.393 61.9684 624.897 62.0676C623.013 62.6629 622.121 65.0441 622.121 65.0441C620.981 67.1773 615.925 92.3293 615.925 92.3293C615.528 94.4625 613.942 94.4625 613.942 94.4625C612.901 94.3137 611.81 92.3789 611.81 92.3789L598.327 69.4594C595.551 65.0441 593.419 66.6316 593.419 66.6316C591.585 67.5246 591.982 69.6082 591.982 69.6082L594.312 85.384C595.055 88.7078 594.064 88.3606 594.064 88.3606C590.891 88.1125 589.602 89.2039 589.602 89.2039C586.925 90.6922 587.57 95.2066 587.57 95.2066C587.619 95.5539 587.619 95.8516 587.57 96.1988L587.372 96.2981C580.432 97.0422 582.315 106.518 582.315 106.518C584.992 126.461 603.978 142.484 603.978 142.484C611.265 146.999 622.419 146.9 622.419 146.9C633.176 146.999 638.876 141.095 640.562 138.912C640.958 138.416 641.157 138.168 641.157 138.168L645.717 129.139C653.401 111.826 648.295 99.473 648.295 99.473Z" fill="white"/>
<path d="M586.926 94.8594L589.404 104.285" stroke="#4722E9" stroke-width="1.5" stroke-linecap="round" stroke-linejoin="round"/>
<path d="M593.865 86.9219L597.335 99.8203" stroke="#4722E9" stroke-width="1.5" stroke-linecap="round" stroke-linejoin="round"/>
<path d="M636.496 86.4258L638.727 104.533" stroke="#4722E9" stroke-width="1.5" stroke-linecap="round" stroke-linejoin="round"/>
<path d="M596.592 166.644C596.592 166.644 627.673 172.349 651.914 156.177L681.508 288.584L596.889 305.352L596.592 166.644Z" fill="#55BC9F"/>
<path d="M102.662 143.229C103.158 140.004 91.1123 135.489 75.7948 133.108C60.4772 130.727 47.5886 131.421 47.0929 134.646C46.5972 137.871 58.643 142.385 73.9606 144.766C89.3278 147.148 102.167 146.453 102.662 143.229Z" fill="#55BC9F"/>
<path d="M68.8553 129.189C68.8553 129.189 60.9734 125.617 57.0077 120.16L55.9667 123.534L11.9473 264.92L81.0994 278.017L98.152 129.884C98.152 129.884 80.802 135.043 68.8553 129.189Z" fill="white"/>
<path d="M47.0925 134.15C47.0925 134.15 74.3072 150.223 102.612 143.477L84.7172 277.918L-0.496094 264.424L47.0925 134.15Z" fill="#DF5751"/>
<path d="M68.4585 64.3C68.4585 64.3 74.655 60.7281 79.166 62.4148C79.166 62.4148 92.699 56.4617 103.654 63.8535C103.654 63.8535 107.471 66.4828 104.348 68.368C104.348 68.368 103.159 69.0625 100.531 68.616C100.531 68.616 98.3997 68.1199 94.8305 69.1121C94.8305 69.1121 89.8238 70.0547 86.7504 73.8746C86.7504 73.8746 82.9334 78.3891 83.1813 83.6477C83.1813 83.6477 83.4291 91.2379 89.3777 93.8672C89.3777 93.8672 93.8887 96.0004 98.2014 95.7523C98.2014 95.7523 105.34 95.0578 107.967 89.7992C108.116 89.3527 108.413 89.0055 108.81 88.7574C109.206 88.5094 109.652 88.3605 110.099 88.3605C110.099 88.3605 112.726 88.3605 113.172 92.4285C113.172 92.4285 115.304 100.515 111.982 111.479C111.982 111.479 109.355 119.317 103.208 123.633C103.208 123.633 97.5074 127.899 92.7485 129.09C92.7485 129.09 85.3624 131.967 73.5148 128.395C69.2517 127.105 65.3355 125.022 61.8655 122.194C61.8655 122.194 52.8435 115.298 48.3325 101.755C48.3325 101.755 45.4574 94.8594 49.5223 82.9531C49.5223 82.9531 52.8435 71.543 63.0553 65.5898C63.0057 65.4906 66.0791 64.0519 68.4585 64.3Z" fill="white"/>
<path d="M80.0571 61.8691C80.0571 61.8691 69.7958 63.7047 63.3516 78.4387" stroke="#4722E9" stroke-width="1.5" stroke-linecap="round" stroke-linejoin="round"/>
<path d="M68.6563 63.8535C68.6563 63.8535 59.6839 70.5012 57.0566 77.5953" stroke="#4722E9" stroke-width="1.5" stroke-linecap="round" stroke-linejoin="round"/>
<path d="M503.398 157.516C519.26 155.085 531.703 150.521 531.207 147.296C530.711 144.072 517.476 143.427 501.613 145.858C485.75 148.289 473.308 152.853 473.803 156.077C474.299 159.352 487.535 159.947 503.398 157.516Z" fill="#55BC9F"/>
<path d="M476.877 275.338L548.26 270.873L521.293 131.57L520.599 132.563C520.004 133.307 519.36 134.001 518.616 134.696L516.584 137.127C516.584 137.127 508.355 147.545 484.808 140.698C483.569 140.252 482.379 139.557 481.338 138.764V141.393L476.877 275.338Z" fill="white"/>
<path d="M473.604 155.631C473.604 155.631 505.479 162.626 531.206 147.495L556.042 281.043L467.953 294.239L473.604 155.631Z" fill="#DF5751"/>
<path d="M464.037 83.6477L463.195 63.407C463.195 63.407 462.55 58.1484 465.178 58.1484C465.178 58.1484 465.178 54.8742 466.169 53.5348C466.169 53.5348 466.814 52.1953 468.152 52.1953C468.152 52.1953 467.805 48.5738 469.49 47.9289C469.49 47.9289 472.118 46.639 474.101 50.2109C474.101 50.2109 481.982 66.9789 484.312 76.2062C484.312 76.2062 484.957 78.1906 485.948 78.1906C485.948 78.1906 487.584 78.5379 488.922 75.9086C488.922 75.9086 492.194 67.0285 505.677 68.368C508.553 68.864 511.329 70.0547 513.658 71.8406C515.988 73.6266 517.872 75.9086 519.161 78.5875C519.161 78.5875 521.491 84.1933 518.814 85.4832C518.814 85.4832 518.169 85.8304 516.831 84.8383C515.493 83.8461 514.551 81.8617 510.932 80.5719C510.932 80.5719 506.322 78.2898 500.423 81.9113C500.423 81.9113 493.185 85.5328 493.532 92.1308C493.532 92.1308 493.532 101.656 504.389 102.003C504.389 102.003 512.915 103.343 515.592 91.4859C515.592 91.4859 515.939 85.8801 518.219 85.8801C518.219 85.8801 523.176 85.2351 524.118 94.7601C524.118 94.7601 527.737 114.157 521.144 127.354C521.144 127.354 516.187 138.863 502.753 140.5C502.753 140.5 484.659 144.121 471.87 127.354C471.87 127.354 462.997 117.829 463.988 97.0918C463.889 96.9926 464.533 89.4023 464.037 83.6477Z" fill="white"/>
<path d="M468.152 51.7488L470.482 78.8852" stroke="#4722E9" stroke-width="1.5" stroke-linecap="round" stroke-linejoin="round"/>
<path d="M465.178 57.7516L466.516 79.1828" stroke="#4722E9" stroke-width="1.5" stroke-linecap="round" stroke-linejoin="round"/>
</svg>
