<svg width="41" height="41" viewBox="0 0 41 41" fill="none" xmlns="http://www.w3.org/2000/svg">
<ellipse cx="20.291" cy="20.4" rx="20.0323" ry="19.8" fill="#FF4D4D"/>
<path d="M19.6875 22.4356C19.5435 22.4356 19.4211 22.3924 19.3203 22.306C19.2195 22.2052 19.1691 22.0756 19.1691 21.9172V12.0244C19.1691 11.8804 19.2195 11.758 19.3203 11.6572C19.4211 11.5564 19.5435 11.506 19.6875 11.506H21.4371C21.5955 11.506 21.7179 11.5564 21.8043 11.6572C21.9051 11.758 21.9555 11.8804 21.9555 12.0244V21.9172C21.9555 22.0756 21.9051 22.2052 21.8043 22.306C21.7179 22.3924 21.5955 22.4356 21.4371 22.4356H19.6875ZM19.5579 26.626C19.3995 26.626 19.2699 26.5756 19.1691 26.4748C19.0827 26.374 19.0395 26.2516 19.0395 26.1076V24.0988C19.0395 23.9404 19.0827 23.8108 19.1691 23.71C19.2699 23.6092 19.3995 23.5588 19.5579 23.5588H21.5667C21.7251 23.5588 21.8547 23.6092 21.9555 23.71C22.0563 23.8108 22.1067 23.9404 22.1067 24.0988V26.1076C22.1067 26.2516 22.0563 26.374 21.9555 26.4748C21.8547 26.5756 21.7251 26.626 21.5667 26.626H19.5579Z" fill="white"/>
</svg>
