<svg width="692" height="340" viewBox="0 0 692 340" fill="none" xmlns="http://www.w3.org/2000/svg">
<path d="M323.808 79.301L324.389 74.0898C285.313 67.7345 310.494 30.068 336.834 37.8889C362.303 13.2624 402.826 69.7443 406.305 134.035L307.616 133.46C307.616 133.46 307.596 93.3301 323.808 79.301Z" fill="#393939"/>
<path d="M284.433 293.977L282.869 339.789L422.791 340L411.52 289.52L296.267 293.559L284.433 293.977Z" fill="#393939"/>
<path opacity="0.1" d="M285.624 297.102L420.965 331.628L411.556 289.544L288.636 293.552L285.624 297.102Z" fill="black"/>
<path d="M428.26 169.724L417.541 288.86C417.144 293.488 413.044 297.086 408.053 297.225L286.864 300.618C278.012 300.808 270.895 293.893 271.491 285.679L281.359 149.304L348.186 118.584L428.26 169.724Z" fill="#FFCC00"/>
<path d="M232.968 187.305L264.805 144.371C268.109 139.682 272.328 135.713 277.211 132.705C282.093 129.698 287.534 127.714 293.206 126.874L349.727 118.493L255.035 235.444C252.875 238.115 250.122 240.244 246.997 241.666C243.87 243.087 240.457 243.763 237.027 243.638C233.595 243.512 230.239 242.59 227.226 240.944C224.212 239.299 221.623 236.974 219.662 234.154L190.424 192.099L215.111 166.995L232.968 187.305Z" fill="#FFCC00"/>
<path d="M149.016 155.393C142.057 148.43 146.531 146.439 160.446 150.916C174.359 155.393 196.233 151.913 202.692 154.4C205.138 155.342 210.004 160.7 215.109 166.995L190.421 192.099L177.345 173.295C177.345 173.295 155.972 162.36 149.016 155.393Z" fill="#FF9900"/>
<path d="M348.163 118.6L405.959 125.194C412.683 125.961 419.005 128.782 424.069 133.273L494.481 195.725C498.169 198.996 501.078 203.055 502.993 207.6C504.906 212.144 505.779 217.062 505.545 221.987C505.336 226.379 504.251 230.684 502.356 234.651C500.461 238.616 497.793 242.165 494.508 245.085L448.419 285.997L421.597 257.744L452.655 221.01L349.589 133.424L348.163 118.6Z" fill="#FFCC00"/>
<path d="M448.408 286.008C448.408 286.008 415.499 310.131 412.053 309.669C406.757 308.966 413.466 299.429 413.466 299.429C413.466 299.429 402.184 309.118 399.345 306.846C397.579 305.432 399.698 300.136 408.171 290.958C408.171 290.958 391.132 302.719 388.052 300.491C381.699 295.899 405.343 278.946 405.343 278.946C405.343 278.946 389.465 287.776 386.638 284.948C383.812 282.119 421.573 257.755 421.573 257.755L448.408 286.008Z" fill="#FF9900"/>
<g opacity="0.8">
<path opacity="0.8" d="M272.737 135.894C280.959 136.796 289.177 140.045 296.334 143.913C312.534 152.651 327.449 167.297 346.873 167.889C365.407 168.453 379.326 154.206 395.066 146.738C407.102 141.026 420.734 139.588 433.782 141.883L436.09 143.929C421.949 140.883 406.848 142.341 393.72 149.093C380.188 156.056 368.028 167.281 352.386 169.164C335.544 171.19 320.53 161.089 307.132 152.33C296.906 145.657 284.023 138.138 271.301 137.126C271.757 136.708 272.245 136.295 272.737 135.894Z" fill="white"/>
<path opacity="0.8" d="M467.481 269.072L433.933 243.147L434.91 241.995C446.152 250.678 457.392 259.363 468.629 268.05L467.481 269.072Z" fill="white"/>
<path opacity="0.8" d="M227.545 181.135L207.299 216.355L206.339 214.969L226.49 179.928L227.545 181.135Z" fill="white"/>
</g>
<path d="M409.385 182.875L432.988 202.433L431.976 203.657L408.371 184.099L409.385 182.875Z" fill="black"/>
<path d="M472.011 218.233L472.172 219.813L452.735 221.785L452.576 220.205L472.011 218.233Z" fill="black"/>
<path d="M279.91 177.565L281.486 177.756L277.426 211.28L275.85 211.089L279.91 177.565Z" fill="black"/>
<path d="M216.306 166.992L242.193 196.456L241.001 197.506L215.114 168.042L216.306 166.992Z" fill="black"/>
<path d="M330.926 80.2743V124.177C330.926 126.483 331.381 128.766 332.262 130.897C333.145 133.027 334.437 134.963 336.067 136.594C337.696 138.224 339.631 139.518 341.761 140.4C343.889 141.283 346.171 141.738 348.476 141.738C350.781 141.738 353.063 141.283 355.193 140.4C357.322 139.518 359.257 138.224 360.887 136.594C362.517 134.963 363.809 133.027 364.691 130.897C365.573 128.766 366.027 126.483 366.027 124.177V80.2743H330.926Z" fill="#FF9900"/>
<path d="M330.927 103.574V121.182C342.438 117.683 351.046 108.277 358.523 96.6707L330.927 103.574Z" fill="#FFC061"/>
<path d="M318.604 88.7981C318.977 95.7253 320.62 101.31 324.674 102.772C337.409 107.403 358.524 96.6786 358.524 96.6786L363.736 74.0897L355.63 56.1323L329.858 47.7235L322.911 52.9587C322.911 52.9587 319.577 66.7216 318.7 79.8095C318.496 82.8013 318.464 85.8025 318.604 88.7981Z" fill="#FF9900"/>
<path d="M362.576 78.7212C353.712 62.0387 341.14 52.2596 322.922 52.9468L320.898 46.5915L339.71 44.8558L364.025 52.6727L369.812 72.6559L362.576 78.7212Z" fill="#393939"/>
<path d="M323.987 75.1026C323.987 76.5126 324.873 77.6605 325.971 77.6605C327.072 77.6605 327.957 76.5126 327.957 75.1026C327.957 73.6924 327.072 72.5445 325.971 72.5445C324.873 72.5445 323.987 73.6885 323.987 75.1026Z" fill="black"/>
<path d="M338.795 75.0033C338.795 76.4174 339.679 77.5652 340.779 77.5652C341.88 77.5652 342.764 76.4174 342.764 75.0033C342.764 73.5893 341.88 72.4454 340.779 72.4454C339.679 72.4454 338.795 73.5933 338.795 75.0033Z" fill="black"/>
<path d="M330.213 78.2524C329.576 78.8342 329.026 79.5028 328.576 80.2384C328.084 80.9859 327.733 81.8162 327.536 82.6891C327.423 83.1806 327.409 83.6899 327.497 84.1865C327.6 84.7545 327.905 85.2663 328.354 85.6284C328.464 85.7117 328.579 85.7874 328.7 85.8548L329.06 86.0177C329.295 86.0914 329.535 86.142 329.779 86.1686C330.23 86.2129 330.684 86.1821 331.125 86.0772V85.4815C330.751 85.3887 330.384 85.272 330.025 85.1319C329.724 85.0307 329.451 84.8576 329.231 84.6274C329.066 84.4332 328.967 84.1909 328.95 83.9364C328.92 83.6187 328.94 83.2984 329.009 82.9871C329.179 82.2511 329.413 81.5319 329.711 80.8383L330.673 78.6218L330.213 78.2524Z" fill="black"/>
<path d="M339.422 87.8924C337.517 94.1206 331.125 95.4393 329.196 89.8229L339.422 87.8924Z" fill="white"/>
<path d="M337.306 66.4316C337.203 67.4326 338.048 67.9966 338.894 68.2826C340.819 68.9574 342.835 69.3454 344.872 69.4345C345.528 69.4543 346.778 69.6609 347.227 69.0016C347.676 68.3423 347.032 67.7464 346.433 67.4524C345.306 66.9162 337.592 63.6513 337.306 66.4316Z" fill="black"/>
<path d="M329.196 66.1378C329.275 67.1269 328.492 67.6948 327.71 67.9888C325.952 68.6801 324.097 69.0955 322.212 69.2202C321.609 69.2479 320.458 69.4704 320.061 68.8229C319.664 68.1755 320.256 67.5797 320.822 67.2778C321.855 66.7416 328.97 63.4011 329.196 66.1378Z" fill="black"/>
<path d="M361.276 86.747C357.607 84.628 356.707 79.317 359.265 74.8849C361.821 70.4527 366.868 68.5776 370.537 70.6966C374.205 72.8157 375.106 78.1266 372.548 82.5588C369.991 86.991 364.943 88.8661 361.276 86.747Z" fill="#FF9900"/>
<path d="M363.839 81.8153C364.019 81.0664 364.252 80.3311 364.538 79.6148C364.812 78.949 365.177 78.3247 365.625 77.76C366.077 77.2146 366.612 76.7452 367.213 76.3698C367.854 75.9777 368.543 75.6681 369.262 75.4483L369.222 74.8524C368.34 74.7116 367.436 74.8217 366.614 75.1702C365.765 75.5219 365.019 76.0854 364.45 76.8067C363.89 77.516 363.498 78.3431 363.302 79.2257C363.107 80.0734 363.09 80.9525 363.251 81.8074L363.839 81.8153Z" fill="#FF9900"/>
<path d="M182.185 125.039C151.405 125.039 126.453 100.073 126.453 69.2757C126.453 38.4787 151.405 13.5126 182.185 13.5126C212.964 13.5126 237.916 38.4787 237.916 69.2757C237.916 100.073 212.964 125.039 182.185 125.039Z" fill="white"/>
<path d="M182.183 125.817C213.333 125.817 238.676 100.46 238.676 69.2916C238.676 38.1232 213.333 12.7619 182.183 12.7619C151.032 12.7619 125.689 38.1193 125.689 69.2916C125.689 100.464 151.032 125.817 182.183 125.817ZM182.183 14.2872C212.496 14.2872 237.152 38.9613 237.152 69.2916C237.152 99.6219 212.496 124.292 182.183 124.292C151.869 124.292 127.213 99.602 127.213 69.2797C127.213 38.9574 151.869 14.2753 182.183 14.2753V14.2872Z" fill="#FF9900"/>
<path d="M174.759 79.162L174.675 77.0051C174.425 72.767 175.83 68.4495 179.57 63.961C182.225 60.8034 184.38 58.1461 184.38 55.3219C184.38 52.4145 182.475 50.504 178.327 50.3371C175.408 50.3856 172.56 51.2496 170.105 52.8316L167.279 43.7794C170.276 42.0316 175.258 40.3713 181.146 40.3713C192.109 40.3713 197.085 46.4366 197.085 53.328C197.085 59.6435 193.181 63.7943 190.033 67.2857C186.958 70.6896 185.715 73.9308 185.794 77.6646V79.162H174.759ZM172.595 90.6253C172.595 86.2203 175.667 83.0784 179.987 83.0784C184.468 83.0784 187.378 86.2322 187.457 90.6253C187.457 94.9428 184.468 98.1721 179.987 98.1721C175.588 98.184 172.595 94.9428 172.595 90.6253Z" fill="black"/>
</svg>
