<svg width="20" height="20" viewBox="0 0 20 20" fill="none" xmlns="http://www.w3.org/2000/svg">
<path fill-rule="evenodd" clip-rule="evenodd" d="M10 9.49994C11.578 9.49994 12.8571 8.22074 12.8571 6.64279C12.8571 5.06483 11.578 3.78564 10 3.78564C8.42204 3.78564 7.14285 5.06483 7.14285 6.64279C7.14285 8.22074 8.42204 9.49994 10 9.49994ZM3.57145 10.9285C4.75491 10.9285 5.7143 9.96915 5.7143 8.78568C5.7143 7.60221 4.75491 6.64282 3.57145 6.64282C2.38798 6.64282 1.42859 7.60221 1.42859 8.78568C1.42859 9.96915 2.38798 10.9285 3.57145 10.9285ZM13.5333 12.1532C12.5583 11.4593 11.3583 10.9287 10 10.9287C8.64167 10.9287 7.44167 11.4593 6.46667 12.1668C5.56667 12.8063 5 14.2756 5 15.8811V17.4716C5 17.8029 5.26863 18.0716 5.6 18.0716H14.4C14.7314 18.0716 15 17.8029 15 17.4716V15.8675C15 14.2756 14.4333 12.8063 13.5333 12.1532ZM3.33333 12.6294C3.50912 12.6294 3.68003 12.6453 3.84871 12.6728C4.08027 12.7107 4.20585 12.9551 4.13805 13.1797C3.88972 14.0023 3.75 14.9169 3.75 15.8811V16.9001C3.75 17.2315 3.48137 17.5001 3.15 17.5001H0.6C0.268629 17.5001 0 17.2315 0 16.9001V15.9355C0 14.8335 0.4 13.8539 1.01667 13.4185C1.725 12.9151 2.50833 12.6294 3.33333 12.6294ZM20 15.9355C20 14.8335 19.6 13.8539 18.9833 13.4185C18.275 12.9151 17.4917 12.6294 16.6667 12.6294C16.4909 12.6294 16.32 12.6453 16.1513 12.6728C15.9197 12.7107 15.7941 12.9551 15.8619 13.1797C16.1103 14.0023 16.25 14.9169 16.25 15.8811V16.9001C16.25 17.2315 16.5186 17.5001 16.85 17.5001H19.4C19.7314 17.5001 20 17.2315 20 16.9001V15.9355ZM18.5715 8.78568C18.5715 9.96915 17.6121 10.9285 16.4286 10.9285C15.2451 10.9285 14.2857 9.96915 14.2857 8.78568C14.2857 7.60221 15.2451 6.64282 16.4286 6.64282C17.6121 6.64282 18.5715 7.60221 18.5715 8.78568Z" fill="black" fill-opacity="0.44"/>
</svg>
