<svg width="132" height="48" viewBox="0 0 132 48" fill="none" xmlns="http://www.w3.org/2000/svg">
<path d="M120.902 32.0604C120.462 32.3999 119.273 33.1332 117.567 33.1332H117.49C113.79 33.1332 111.49 30.7812 111.49 26.9233V13.9768C111.49 13.8832 111.528 13.7887 111.662 13.7318C111.796 13.6758 114.749 12.3213 114.883 12.2644C115.017 12.2084 115.113 12.2644 115.113 12.3957V17.2694H119.388C119.484 17.2694 119.561 17.3456 119.561 17.4392V20.4501C119.561 20.4724 119.557 20.4946 119.548 20.5152C119.539 20.5359 119.527 20.5546 119.51 20.5704C119.494 20.5862 119.475 20.5987 119.454 20.6071C119.433 20.6156 119.411 20.6199 119.388 20.6198H115.113V26.9233C115.113 28.5981 116.091 29.7277 117.587 29.7461H117.625C118.468 29.7461 119.312 29.4074 119.637 29.2762C119.714 29.2386 119.81 29.2762 119.849 29.3514L120.96 31.8356C121.018 31.9108 120.98 31.9861 120.902 32.0613V32.0604ZM78.0917 11.5189H74.7935C74.7708 11.5188 74.7484 11.5231 74.7275 11.5316C74.7065 11.5401 74.6875 11.5526 74.6715 11.5684C74.6555 11.5842 74.6428 11.6029 74.6342 11.6236C74.6256 11.6442 74.6213 11.6664 74.6214 11.6887V18.4437C73.2759 17.559 71.6947 17.0876 70.0777 17.0892C65.5721 17.0892 61.9102 20.6837 61.9102 25.1059C61.9102 29.5466 65.5721 33.1218 70.0777 33.1218C71.6943 33.1207 73.2747 32.6495 74.6214 31.7673V32.7648C74.6214 32.8584 74.6977 32.9337 74.7935 32.9337H78.0908C78.1134 32.9339 78.1359 32.9297 78.1569 32.9213C78.1779 32.913 78.1969 32.9005 78.213 32.8848C78.2291 32.8691 78.2419 32.8504 78.2506 32.8298C78.2593 32.8092 78.2638 32.7871 78.2638 32.7648V11.6887C78.2443 11.5942 78.168 11.5189 78.0908 11.5189H78.0917ZM74.6214 25.1252C74.6118 26.3071 74.1287 27.4373 73.2774 28.2692C72.4262 29.1011 71.276 29.5672 70.0777 29.5658C67.5654 29.5658 65.534 27.5708 65.534 25.1059C65.534 22.6402 67.5654 20.6461 70.0777 20.6461C72.5704 20.6461 74.6019 22.6218 74.6214 25.0867V25.1243V25.1252ZM84.2065 17.2703H80.9286C80.906 17.2701 80.8835 17.2743 80.8626 17.2827C80.8416 17.291 80.8225 17.3034 80.8064 17.3191C80.7903 17.3349 80.7776 17.3535 80.7689 17.3741C80.7601 17.3948 80.7557 17.4169 80.7557 17.4392V32.7762C80.7557 32.8698 80.8328 32.9459 80.9286 32.9459H84.226C84.2486 32.946 84.271 32.9417 84.292 32.9332C84.3129 32.9248 84.3319 32.9123 84.3479 32.8965C84.3639 32.8807 84.3766 32.8619 84.3852 32.8413C84.3938 32.8206 84.3982 32.7985 84.3981 32.7762V17.4392C84.3794 17.3456 84.3023 17.2703 84.2065 17.2703ZM108.726 17.2703H105.429C105.406 17.2702 105.384 17.2745 105.363 17.2829C105.342 17.2913 105.323 17.3037 105.307 17.3194C105.291 17.3351 105.278 17.3537 105.269 17.3743C105.261 17.3948 105.256 17.4169 105.256 17.4392V32.7762C105.256 32.8698 105.333 32.9459 105.429 32.9459H108.726C108.749 32.946 108.771 32.9417 108.792 32.9332C108.813 32.9248 108.832 32.9123 108.848 32.8965C108.864 32.8807 108.877 32.8619 108.885 32.8413C108.894 32.8206 108.898 32.7985 108.898 32.7762V17.4392C108.898 17.4169 108.894 17.3949 108.885 17.3744C108.877 17.3538 108.864 17.3352 108.848 17.3195C108.832 17.3038 108.813 17.2913 108.792 17.2829C108.771 17.2745 108.749 17.2702 108.726 17.2703ZM108.726 11.5137H105.429C105.406 11.5136 105.384 11.5179 105.363 11.5264C105.342 11.5348 105.323 11.5473 105.307 11.5631C105.291 11.5789 105.278 11.5976 105.269 11.6183C105.26 11.6389 105.256 11.6611 105.256 11.6834V14.6934C105.256 14.7879 105.333 14.8632 105.429 14.8632H108.726C108.749 14.8633 108.771 14.859 108.792 14.8506C108.813 14.8421 108.832 14.8297 108.848 14.814C108.864 14.7983 108.877 14.7797 108.885 14.7591C108.894 14.7386 108.898 14.7166 108.898 14.6943V11.6834C108.898 11.6611 108.894 11.639 108.885 11.6183C108.877 11.5977 108.864 11.5789 108.848 11.5631C108.832 11.5474 108.813 11.5349 108.792 11.5264C108.771 11.5179 108.749 11.5136 108.726 11.5137ZM84.2065 11.5137H80.9286C80.9059 11.5134 80.8834 11.5177 80.8624 11.5261C80.8413 11.5345 80.8222 11.547 80.8061 11.5628C80.79 11.5786 80.7773 11.5974 80.7686 11.6181C80.7599 11.6388 80.7555 11.661 80.7557 11.6834V14.6934C80.7557 14.7879 80.8328 14.8632 80.9286 14.8632H84.226C84.2485 14.8633 84.2709 14.859 84.2918 14.8506C84.3126 14.8421 84.3316 14.8297 84.3476 14.814C84.3636 14.7983 84.3763 14.7797 84.385 14.7591C84.3936 14.7386 84.3981 14.7166 84.3981 14.6943V11.6834C84.3794 11.5889 84.3023 11.5137 84.2065 11.5137ZM102.687 27.6977V17.4418C102.667 17.3473 102.591 17.2721 102.495 17.2721H99.1975C99.1749 17.2719 99.1524 17.2763 99.1315 17.2847C99.1106 17.2932 99.0916 17.3057 99.0756 17.3215C99.0595 17.3373 99.0469 17.3561 99.0383 17.3767C99.0297 17.3974 99.0253 17.4195 99.0254 17.4418V18.4393C97.6788 17.5569 96.0984 17.0854 94.4817 17.0839C89.9575 17.0839 86.3151 20.6784 86.3151 25.1007C86.3151 29.5413 89.9761 33.1166 94.4817 33.1166C96.1494 33.1166 97.7409 32.6274 99.0254 31.7804L102.687 27.6968V27.6977ZM94.5198 29.5606C92.0094 29.5606 89.9761 27.5656 89.9761 25.1007C89.9761 22.6349 92.0085 20.6408 94.5198 20.6408C97.0312 20.6408 99.0636 22.6358 99.0636 25.1007C99.044 27.5656 97.0126 29.5606 94.5198 29.5606Z" fill="#939598"/>
<path d="M94.5237 39.7036C91.6478 39.7036 88.2546 38.1601 86.7785 35.2245C86.7208 35.1116 86.7785 34.9795 86.8938 34.9235L89.3865 33.7755C89.5196 33.7195 89.6349 33.7755 89.6926 33.87C90.5353 35.0556 91.8589 36.5423 94.5237 36.523C97.7829 36.4854 99.1632 33.9453 99.1632 31.7621V28.4503L102.69 27.6978V31.3859C102.69 36.8616 98.8758 39.7036 94.5237 39.7036Z" fill="#939598"/>
<path d="M54.0269 24C54.0269 12.4019 44.4951 3 32.7366 3C20.9781 3 11.4463 12.4019 11.4463 24C11.4463 35.5981 20.9781 45 32.7366 45C44.4951 45 54.0269 35.5981 54.0269 24Z" fill="#939598"/>
<path d="M39.9888 13.6924H25.4821C24.5833 13.6949 23.7221 14.0483 23.0866 14.6753C22.4511 15.3022 22.0931 16.1518 22.0908 17.0384V31.349C22.0931 32.2355 22.4512 33.085 23.0867 33.7118C23.7222 34.3386 24.5834 34.6918 25.4821 34.6941H39.9906C40.8892 34.6916 41.7502 34.3383 42.3855 33.7115C43.0208 33.0847 43.3788 32.2353 43.3811 31.349V17.0384C43.379 16.1516 43.0209 15.3017 42.3852 14.6747C41.7495 14.0477 40.8879 13.6945 39.9888 13.6924ZM27.6112 22.7591V21.6899H26.5245C26.4739 21.6899 26.4254 21.6701 26.3896 21.6348C26.3539 21.5995 26.3338 21.5517 26.3338 21.5018V20.6268C26.3338 20.5769 26.3539 20.529 26.3896 20.4937C26.4254 20.4585 26.4739 20.4386 26.5245 20.4386H27.6085V19.3711C27.6085 19.3212 27.6286 19.2734 27.6644 19.2381C27.7001 19.2028 27.7487 19.183 27.7992 19.183H28.6863C28.7369 19.183 28.7854 19.2028 28.8212 19.2381C28.857 19.2734 28.8771 19.3212 28.8771 19.3711V20.4395H29.9611C30.0117 20.4395 30.0602 20.4593 30.096 20.4946C30.1317 20.5299 30.1518 20.5777 30.1518 20.6276V21.5026C30.1518 21.5525 30.1317 21.6004 30.096 21.6357C30.0602 21.6709 30.0117 21.6908 29.9611 21.6908H28.8904V22.76C28.8904 22.8099 28.8703 22.8578 28.8345 22.893C28.7987 22.9283 28.7502 22.9481 28.6996 22.9481H27.8125C27.7866 22.9497 27.7605 22.946 27.736 22.9372C27.7115 22.9285 27.6891 22.9148 27.6702 22.8972C27.6512 22.8796 27.6361 22.8583 27.6258 22.8347C27.6155 22.8111 27.6102 22.7857 27.6103 22.76L27.6112 22.7591ZM31.5765 30.488C30.2718 30.4903 28.998 30.0959 27.9288 29.3584C27.9152 29.3487 27.9051 29.335 27.9002 29.3192C27.8952 29.3034 27.8956 29.2864 27.9013 29.2709C27.905 29.2604 27.911 29.2508 27.919 29.2429L28.7271 28.4449C28.7396 28.433 28.7557 28.4256 28.7729 28.4239C28.7901 28.4221 28.8074 28.4261 28.8221 28.4353C29.4965 28.8617 30.2634 29.1256 31.0604 29.2054C31.8575 29.2852 32.6624 29.1788 33.4101 28.8947C34.1577 28.6107 34.827 28.157 35.3638 27.5703C35.9006 26.9837 36.2898 26.2806 36.4999 25.518C36.5035 25.5 36.5136 25.4839 36.5282 25.4727C36.5429 25.4614 36.5612 25.4558 36.5797 25.4568H37.7347C37.7461 25.4569 37.7574 25.4595 37.7676 25.4645C37.7779 25.4694 37.7869 25.4765 37.794 25.4853C37.8011 25.4941 37.8062 25.5043 37.8088 25.5153C37.8115 25.5262 37.8116 25.5376 37.8092 25.5486C37.4977 26.9506 36.7096 28.2053 35.5755 29.1046C34.4415 30.0038 33.0298 30.4935 31.5747 30.4924L31.5765 30.488ZM39.0858 21.4974C39.0858 21.5473 39.0657 21.5951 39.0299 21.6304C38.9941 21.6657 38.9456 21.6855 38.895 21.6855H35.4513C35.4008 21.6855 35.3522 21.6657 35.3165 21.6304C35.2807 21.5951 35.2606 21.5473 35.2606 21.4974V20.6224C35.2606 20.5725 35.2807 20.5246 35.3165 20.4894C35.3522 20.4541 35.4008 20.4343 35.4513 20.4343H38.8933C38.9439 20.4343 38.9924 20.4541 39.0281 20.4894C39.0639 20.5246 39.084 20.5725 39.084 20.6224V21.4974H39.0858Z" fill="white"/>
</svg>
