<svg width="132" height="48" viewBox="0 0 132 48" fill="none" xmlns="http://www.w3.org/2000/svg">
<path d="M24.9819 16L16.9875 22.9987L9 16V31.9863H24.9819V16Z" fill="#939598"/>
<path d="M60.2466 16L56.3451 23.4088L44.2646 16V31.9863H60.2466V16Z" fill="#939598"/>
<path d="M71.957 31.9863H87.9389L79.9514 16.0342L71.957 31.9863Z" fill="#939598"/>
<path d="M26.6973 31.9863H42.6793L34.6917 16.0342L26.6973 31.9863Z" fill="#939598"/>
<path d="M63.9697 16V31.9863C68.3837 31.9863 71.9572 28.405 71.9572 23.9897C71.9572 19.5814 68.3837 16 63.9697 16Z" fill="#939598"/>
<path d="M89.6543 32V16.0205L94.0205 25.2405L105.616 31.9863L89.6543 32Z" fill="#939598"/>
<path d="M122.882 31.9863H106.935L114.895 16.0342L122.882 31.9863Z" fill="#939598"/>
</svg>
