<svg width="132" height="48" viewBox="0 0 132 48" fill="none" xmlns="http://www.w3.org/2000/svg">
<path fill-rule="evenodd" clip-rule="evenodd" d="M11.0254 12H35.7454V36.72H11.0254V12ZM23.6002 23.2999C24.2629 23.2999 24.8002 22.7626 24.8002 22.0999C24.8002 21.4372 24.2629 20.8999 23.6002 20.8999C22.9375 20.8999 22.4002 21.4372 22.4002 22.0999C22.4002 22.7626 22.9375 23.2999 23.6002 23.2999ZM21.1629 27.6984C23.3451 32.1173 25.2584 32.7261 27.0008 32.7261C28.9529 32.7261 30.1196 31.2112 30.1187 29.7455C30.1187 29.4313 30.1283 29.148 30.1375 28.8952V28.8928C30.1641 28.1306 30.1816 27.6271 29.8895 27.3214C29.7369 27.1615 29.5212 27.0826 29.2161 27.0796C28.8465 27.0796 28.6269 27.2365 28.5079 27.3676C28.1998 27.7071 28.2386 28.2049 28.2429 28.2319C28.2429 28.2319 28.2364 28.7732 28.2364 29.7734C28.2364 30.5731 27.4101 30.8712 26.8893 30.8712C25.6236 30.8712 24.3758 29.4308 23.611 28.0724C26.5741 27.613 28.8426 25.1035 28.8426 22.2014C28.8426 18.9218 26.0124 16.2537 22.5341 16.2537H17.9017C17.3992 16.2537 16.9747 16.6786 16.9747 17.1811C16.9747 17.6897 17.4079 18.136 17.9017 18.136H18.5833V30.594H18.0682C17.5325 30.594 17.1133 31.0133 17.1133 31.5489C17.1133 32.0575 17.5595 32.5038 18.0682 32.5038H20.9808C21.4746 32.5038 21.9082 32.0575 21.9082 31.5489C21.9082 31.0046 21.5094 30.594 20.9808 30.594H20.4935V18.1356H22.5345C24.9184 18.1356 26.9328 19.9974 26.9328 22.2014C26.9328 24.6333 24.6587 26.2667 22.5345 26.2667H21.9518C21.3974 26.2667 21.0248 26.7461 21.0248 27.1942C21.0248 27.348 21.0705 27.5132 21.1629 27.6984ZM48.6952 28.8354C49.2103 30.2126 49.4095 30.8934 49.5089 31.4246H53.3934L53.2956 31.2174C52.9459 30.4768 52.7643 30.0921 52.5967 29.6652L52.397 29.186L52.3969 29.1858C51.8049 27.7651 51.5933 27.2573 51.3681 26.7766C50.8368 25.5981 50.4551 25.2159 49.6082 24.9505C50.4224 24.685 50.771 24.5024 51.1859 24.1207C51.8336 23.5061 52.1652 22.577 52.1652 21.3981C52.1652 19.0076 50.605 17.6125 47.9155 17.6125H43.5995C42.4703 17.6125 41.8562 17.5964 41.1258 17.5632C41.2252 18.3599 41.2583 18.9744 41.2583 20.003V28.9348C41.2583 30.1634 41.2252 30.6615 41.1258 31.4246H44.6952C44.595 30.6615 44.5618 30.0474 44.5618 28.9186V26.1956H46.2554C46.7867 26.1956 47.2016 26.3285 47.5503 26.6436C47.9652 27.0093 48.1639 27.3911 48.6952 28.8354ZM48.7292 21.813C48.7292 22.7591 48.1308 23.3567 47.1515 23.3567H44.5618V20.4018H47.1685C48.1979 20.4018 48.7292 20.8829 48.7292 21.813ZM57.2527 27.291C57.4183 28.636 58.1989 29.3499 59.5103 29.3499C60.1745 29.3499 60.7554 29.1341 61.1869 28.7354C61.4357 28.5031 61.5517 28.3204 61.685 27.889L64.5737 28.7022C64.1919 29.5652 63.9426 29.9474 63.478 30.412C62.5318 31.342 61.2039 31.8232 59.5599 31.8232C57.933 31.8232 56.6543 31.3581 55.7081 30.412C54.7288 29.4157 54.1976 28.0053 54.1976 26.3614C54.1976 23.0749 56.3061 20.8997 59.4767 20.8997C62.0668 20.8997 63.8759 22.3109 64.4573 24.7837C64.5898 25.315 64.6565 26.0123 64.7062 26.9585C64.7062 27.0247 64.7062 27.1245 64.7232 27.2902H57.2527V27.291ZM61.5687 25.0008C61.3364 23.9382 60.6225 23.3738 59.4767 23.3738C58.2978 23.3738 57.5844 23.9051 57.3019 25.0008H61.5687ZM78.7733 20.1194C78.7733 18.9244 78.8064 18.3269 78.9058 17.6125H75.3202C75.4196 18.36 75.4527 18.8743 75.4527 20.1194V25.8305C75.4527 27.9224 74.5065 28.9187 72.5148 28.9187C70.5724 28.9187 69.6262 27.9224 69.6262 25.8305V20.1194C69.6262 18.8913 69.6593 18.2271 69.7587 17.6125H66.1732C66.2725 18.2441 66.3056 18.9745 66.3056 20.1194V25.7973C66.3056 27.6566 66.8038 29.1009 67.767 30.1303C68.7628 31.1759 70.439 31.7573 72.4978 31.7573C76.4991 31.7573 78.7733 29.6152 78.7733 25.8305V20.1194ZM80.7903 31.4243C80.8897 30.6278 80.9228 29.931 80.9228 28.8185V20.2197C80.9228 19.0077 80.8897 18.4097 80.7903 17.613H84.1601C84.0769 18.4097 84.0438 19.0081 84.0438 20.2197V21.6139C84.0438 21.8628 84.0438 22.0127 84.0268 22.2446C85.0069 21.3816 86.069 20.9994 87.4467 20.9994C90.4687 20.9994 92.2277 22.9249 92.2277 26.2123C92.2277 27.9883 91.7134 29.4161 90.7502 30.4289C89.8873 31.2918 88.7585 31.7237 87.2972 31.7237C85.92 31.7237 85.1059 31.4413 84.0268 30.5448C84.0268 30.5663 84.03 30.6194 84.0336 30.6793C84.0383 30.7571 84.0438 30.8463 84.0438 30.8931V31.4243H80.7903ZM86.667 23.5233C85.1564 23.5233 84.0769 24.6852 84.0769 26.2955C84.0769 27.9386 85.1725 29.1833 86.6007 29.1833C88.0451 29.1833 89.0074 28.0053 89.0074 26.2454C89.0074 24.5527 88.1274 23.5233 86.667 23.5233ZM96.9 23.8052C96.9 22.6433 96.9331 21.9791 97.0325 21.2983V21.2979H93.5633C93.6627 22.0453 93.6958 22.7261 93.6958 23.8048V28.9187C93.6958 29.9813 93.6627 30.6115 93.5633 31.4247H97.0325C96.9501 30.7113 96.9 29.8148 96.9 28.9187V23.8052ZM96.9832 20.1033V17.6125H93.6134V20.1033H96.9832ZM106.266 24.2867C105.502 24.0544 105.087 23.9712 104.572 23.9712C103.726 23.9712 103.078 24.2697 102.597 24.8673C102.281 25.266 102.165 25.6147 102.099 26.3447V28.9348C102.099 29.9974 102.132 30.628 102.231 31.4247H98.7955C98.8948 30.5949 98.928 29.9974 98.928 28.9187V23.8047C98.928 22.5927 98.8948 22.0122 98.7955 21.2979H102.099V22.6097C102.912 21.5471 103.908 21.0991 105.418 21.0991C105.95 21.0991 106.281 21.1322 107.062 21.2979L106.266 24.2867ZM115.833 30.5287C115.816 30.6778 115.816 30.7941 115.816 30.8935V31.4248H119.086C118.987 30.6115 118.953 29.9312 118.953 28.8185V20.2197C118.953 19.1075 118.987 18.3104 119.086 17.613H115.683C115.782 18.3435 115.816 19.0574 115.816 20.2197V21.5969C115.816 21.8292 115.816 21.9787 115.833 22.228C114.737 21.3481 113.774 20.9994 112.43 20.9994C111.069 20.9994 109.906 21.4474 109.06 22.2942C108.13 23.2404 107.632 24.6185 107.632 26.3448C107.632 29.6985 109.458 31.7242 112.479 31.7242C113.874 31.7242 114.72 31.4248 115.833 30.5287ZM111.615 28.5531C111.117 28.0715 110.852 27.308 110.852 26.3618C110.852 24.6189 111.765 23.5394 113.209 23.5398C114.72 23.5398 115.782 24.7022 115.782 26.3121C115.782 27.9556 114.704 29.1838 113.226 29.1838C112.612 29.1838 112.014 28.9519 111.615 28.5531Z" fill="#939598"/>
</svg>
