<svg width="24" height="24" viewBox="0 0 24 24" fill="none" xmlns="http://www.w3.org/2000/svg">
<g clip-path="url(#clip0_293_348)">
<path d="M24 4.55705C23.1014 4.95532 22.1481 5.21656 21.172 5.33205C22.2006 4.71723 22.9702 3.74892 23.337 2.60805C22.3704 3.18164 21.3128 3.58579 20.21 3.80305C19.7494 3.31145 19.1928 2.91974 18.5745 2.65224C17.9563 2.38475 17.2896 2.24717 16.616 2.24805C13.437 2.24805 11.101 5.21405 11.819 8.29305C9.86138 8.19506 7.94625 7.68645 6.19796 6.80024C4.44967 5.91404 2.9073 4.67005 1.671 3.14905C1.04148 4.23309 0.848566 5.51623 1.13149 6.73746C1.41441 7.95868 2.15192 9.02627 3.194 9.72305C2.41251 9.69838 1.64826 9.48718 0.965 9.10705C0.911 11.3881 2.546 13.5221 4.914 13.9971C4.18873 14.194 3.42806 14.2228 2.69 14.0811C3.00451 15.0594 3.61703 15.915 4.44184 16.5281C5.26665 17.1411 6.26249 17.481 7.29 17.5001C5.2262 19.1189 2.6043 19.8526 0 19.5401C2.25151 20.9866 4.87183 21.7545 7.548 21.7521C16.69 21.7521 21.855 14.0311 21.543 7.10605C22.5067 6.40887 23.3387 5.54575 24 4.55705Z" fill="black" fill-opacity="0.44"/>
</g>
<defs>
<clipPath id="clip0_293_348">
<rect width="24" height="24" fill="white"/>
</clipPath>
</defs>
</svg>
