<svg width="20" height="20" viewBox="0 0 20 20" fill="none" xmlns="http://www.w3.org/2000/svg">
<path fill-rule="evenodd" clip-rule="evenodd" d="M16.65 3.23125C14.8688 1.45 12.4937 0.5 10 0.5C4.775 0.5 0.5 4.775 0.5 10C0.5 11.606 0.943271 13.212 1.72275 14.6039C1.77533 14.6978 1.79017 14.8085 1.76164 14.9123L0.683902 18.8313C0.602212 19.1283 0.872896 19.4023 1.17093 19.3243L5.34191 18.2319C5.43577 18.2073 5.53526 18.2179 5.62249 18.2603C7.00975 18.9357 8.50487 19.3813 10 19.3813C15.225 19.3813 19.5 15.1062 19.5 9.88125C19.5 7.3875 18.4313 5.0125 16.65 3.23125ZM10 17.8375C8.575 17.8375 7.15001 17.4813 5.96251 16.7688L5.86307 16.719C5.77421 16.6746 5.672 16.6648 5.57634 16.6916L3.44975 17.2871C3.14752 17.3717 2.87002 17.0912 2.9579 16.7899L3.53534 14.8101C3.56841 14.6967 3.54968 14.5745 3.48415 14.4762L3.34999 14.275C2.51874 12.9688 2.16249 11.5438 2.16249 10.1188C2.16249 5.84375 5.725 2.28125 10 2.28125C12.1375 2.28125 14.0375 3.1125 15.5813 4.5375C17.125 6.08125 17.8375 7.98125 17.8375 10.1188C17.8375 14.275 14.3938 17.8375 10 17.8375ZM14.275 11.9C14.0603 11.7926 13.0689 11.297 12.7053 11.2029C12.6452 11.1874 12.5842 11.1716 12.5268 11.1479C12.3446 11.0727 12.241 11.0992 12.1375 11.3063C12.0275 11.5262 11.6119 11.9499 11.4569 12.2C11.4342 12.2365 11.4106 12.2733 11.3759 12.2987C11.2887 12.3624 11.1931 12.3729 11.0445 12.3747C10.9824 12.3754 10.9213 12.3606 10.8646 12.3353C10.5674 12.2027 9.90488 11.9355 9.05001 11.1875C8.33751 10.5938 7.86251 9.7625 7.74376 9.525C7.62501 9.2875 7.74376 9.16875 7.86251 9.05C7.98126 8.93125 8.1 8.8125 8.21875 8.69375C8.3375 8.575 8.33751 8.45625 8.45626 8.3375C8.57501 8.21875 8.45626 8.1 8.45626 7.98125C8.45626 7.86453 7.99738 6.71533 7.75616 6.225C7.7478 6.20802 7.74086 6.19082 7.73431 6.17306C7.6128 5.84375 7.38444 5.84375 7.26876 5.84375C7.15001 5.84375 7.03124 5.84375 6.79374 5.84375C6.67499 5.84375 6.43749 5.84375 6.19999 6.08125C5.96249 6.31875 5.36876 6.9125 5.36876 8.1C5.36876 9.21055 6.09576 10.2172 6.2871 10.5373C6.30917 10.5742 6.33327 10.6098 6.35873 10.6445C6.63789 11.0245 8.13279 13.2669 10.3562 14.1562C12.375 14.9875 12.7313 14.75 13.2063 14.75C13.6813 14.75 14.6313 14.1562 14.75 13.6813C14.8719 13.3766 14.9312 13.1031 14.9441 12.9091C14.9566 12.7189 14.8527 12.473 14.7743 12.2991C14.6454 12.013 14.4602 11.9926 14.275 11.9Z" fill="black" fill-opacity="0.44"/>
</svg>
